<?xml version="1.0" standalone="no"?>
<svg xmlns:xlink="http://www.w3.org/1999/xlink" id="wave" style="transform:rotate(0deg); transition: 0.3s" viewBox="0 0 1440 300" version="1.1" xmlns="http://www.w3.org/2000/svg"><defs><linearGradient id="sw-gradient-0" x1="0" x2="0" y1="1" y2="0"><stop stop-color="rgba(61.288, 146.084, 0, 1)" offset="0%"/><stop stop-color="rgba(255, 175.574, 0, 1)" offset="100%"/></linearGradient></defs><path style="transform:translate(0, 0px); opacity:1" fill="url(#sw-gradient-0)" d="M0,210L48,190C96,170,192,130,288,110C384,90,480,90,576,90C672,90,768,90,864,105C960,120,1056,150,1152,150C1248,150,1344,120,1440,115C1536,110,1632,130,1728,130C1824,130,1920,110,2016,125C2112,140,2208,190,2304,215C2400,240,2496,240,2592,205C2688,170,2784,100,2880,60C2976,20,3072,10,3168,25C3264,40,3360,80,3456,80C3552,80,3648,40,3744,20C3840,0,3936,0,4032,40C4128,80,4224,160,4320,175C4416,190,4512,140,4608,105C4704,70,4800,50,4896,80C4992,110,5088,190,5184,185C5280,180,5376,90,5472,85C5568,80,5664,160,5760,195C5856,230,5952,220,6048,205C6144,190,6240,170,6336,180C6432,190,6528,230,6624,245C6720,260,6816,250,6864,245L6912,240L6912,300L6864,300C6816,300,6720,300,6624,300C6528,300,6432,300,6336,300C6240,300,6144,300,6048,300C5952,300,5856,300,5760,300C5664,300,5568,300,5472,300C5376,300,5280,300,5184,300C5088,300,4992,300,4896,300C4800,300,4704,300,4608,300C4512,300,4416,300,4320,300C4224,300,4128,300,4032,300C3936,300,3840,300,3744,300C3648,300,3552,300,3456,300C3360,300,3264,300,3168,300C3072,300,2976,300,2880,300C2784,300,2688,300,2592,300C2496,300,2400,300,2304,300C2208,300,2112,300,2016,300C1920,300,1824,300,1728,300C1632,300,1536,300,1440,300C1344,300,1248,300,1152,300C1056,300,960,300,864,300C768,300,672,300,576,300C480,300,384,300,288,300C192,300,96,300,48,300L0,300Z"/></svg>